<?xml version="1.0" encoding="utf-8"?>
<!-- Generator: Adobe Illustrator 19.2.1, SVG Export Plug-In . SVG Version: 6.00 Build 0)  -->
<svg version="1.1" id="Layer_1" xmlns="http://www.w3.org/2000/svg" xmlns:xlink="http://www.w3.org/1999/xlink" viewBox="-40 -40 200 200" xml:space="preserve">
<style type="text/css">
	.st0{fill:#FFFFFF;}
</style>
<path class="st0" d="M22.4-5.7v55.2h55.2V-5.7H22.4z M36.7,29.4c0,0-3.7-17.4-3.8-22.9c0-7.6,7.9-7.7,7.9,0c0,5.5-3.6,22.9-3.6,22.9
	C37.1,30,36.9,30,36.7,29.4z M41,30.8c0,0,9.6-14.9,13.5-18.9c5.4-5.4,11,0.2,5.6,5.6c-3.9,3.9-18.8,13.6-18.8,13.6
	C40.8,31.5,40.6,31.4,41,30.8z M65.9,39C60.4,39,43,35.3,43,35.3c-0.6-0.2-0.6-0.4,0-0.6c0,0,17.4-3.7,22.9-3.8
	C73.5,31,73.5,39,65.9,39z"/>
<g>
	<path class="st0" d="M-10.1,110.7h1.2l1.5-3.8h5.5l1.5,3.8h1.2L-4,98.6h-1.3L-10.1,110.7L-10.1,110.7z M-4.6,99.7l2.3,6.2h-4.8
		L-4.6,99.7L-4.6,99.7z M-6.5,96.1c0,1,0.8,1.8,1.8,1.8c1,0,1.8-0.8,1.8-1.8c0-1-0.8-1.8-1.8-1.8C-5.7,94.3-6.5,95.1-6.5,96.1
		L-6.5,96.1z M-5.8,96.1c0-0.6,0.5-1.2,1.2-1.2s1.2,0.5,1.2,1.2s-0.5,1.2-1.2,1.2S-5.8,96.7-5.8,96.1L-5.8,96.1z M1.4,110.7h1.1V106
		c0-1.8,1.3-3.2,3.3-3.1v-1.1c-1.6-0.1-2.8,0.8-3.3,2.2h0V102h-1V110.7L1.4,110.7z M13.5,106.6c0.1-2.5-1-4.9-3.9-4.9
		c-2.8,0-4,2.3-4,4.6c0,2.5,1.2,4.6,4,4.6c2.2,0,3.4-1.2,3.8-3.1h-1.1c-0.3,1.3-1.2,2.2-2.8,2.2c-2.1,0-2.9-1.9-2.9-3.5H13.5
		L13.5,106.6z M6.7,105.7c0.2-1.6,1.1-3.1,2.9-3.1c1.7,0,2.7,1.5,2.8,3.1H6.7L6.7,105.7z M16.3,99.3h-1.1v2.6h-1.5v0.9h1.5v6
		c0,1.5,0.5,2,1.9,2c0.3,0,0.6,0,1,0v-0.9c-0.3,0-0.6,0.1-0.9,0.1c-0.8-0.1-0.9-0.5-0.9-1.2v-5.9H18V102h-1.8V99.3L16.3,99.3z
		 M25.6,104.5c-0.1-1.9-1.5-2.8-3.2-2.8c-1.5,0-3.3,0.7-3.3,2.5c0,1.5,1.1,2,2.4,2.3l1.4,0.3c1,0.2,1.9,0.6,1.9,1.6
		c0,1.2-1.4,1.7-2.4,1.7c-1.4,0-2.5-0.7-2.6-2.2h-1.1c0.2,2.1,1.6,3.1,3.6,3.1c1.6,0,3.5-0.7,3.5-2.6c0-1.5-1.3-2.2-2.5-2.4
		l-1.4-0.3c-0.7-0.2-1.8-0.5-1.8-1.5c0-1.1,1.1-1.5,2.1-1.5c1.2,0,2.2,0.6,2.3,1.9H25.6L25.6,104.5z M32.8,104.9h4
		c2,0,3.2,0.8,3.2,2.3c0,1.9-1.5,2.5-3.2,2.5h-4V104.9L32.8,104.9z M31.7,110.7h5.1c3.9,0,4.4-2.3,4.4-3.5c0-1.6-1-2.8-2.6-3v0
		c1.3-0.3,2.1-1.4,2.1-2.7c0-2.3-1.9-3-3.9-3h-5.1V110.7L31.7,110.7z M32.8,99.6h4c1.8,0,2.7,0.8,2.7,2.3c0,1.1-0.9,2.1-2.7,2.1h-4
		V99.6L32.8,99.6z M45,110.7l-0.4,1c-0.4,0.8-0.6,1.4-1.5,1.4c-0.2,0-0.5,0-0.7-0.1v0.9c0.2,0.1,0.4,0.1,0.8,0.1
		c1.3,0,1.7-0.4,2.3-1.9l3.8-10.1h-1.1l-2.7,7.5l-2.9-7.5h-1.1L45,110.7L45,110.7z M50,110.7h1.1V106c0-1.8,1.3-3.2,3.3-3.1v-1.1
		c-1.6-0.1-2.8,0.8-3.3,2.2h0V102h-1V110.7L50,110.7z M60.6,107.3c0,1.7-1.4,2.8-3.1,2.8c-1,0-2-0.7-2-1.7c0-1.7,2.3-1.7,4.1-2
		c0.3-0.1,0.8-0.1,0.9-0.4h0V107.3L60.6,107.3z M56,104.6c0-1.4,1-2,2.3-2c1.3,0,2.3,0.4,2.3,1.8c0,1-0.5,1.1-1.4,1.2
		c-2.3,0.3-4.7,0.4-4.7,2.8c0,1.8,1.3,2.6,2.9,2.6c1.7,0,2.4-0.6,3.2-1.8h0c0,0.9,0.2,1.5,1.3,1.5c0.3,0,0.5,0,0.7-0.1v-0.9
		c-0.1,0-0.2,0.1-0.3,0.1c-0.4,0-0.6-0.2-0.6-0.6v-4.7c0-2.3-1.7-2.8-3.2-2.8c-2,0-3.5,0.9-3.6,2.9H56L56,104.6z M56.6,99.2
		c0,1,0.8,1.8,1.8,1.8c1,0,1.8-0.8,1.8-1.8c0-1-0.8-1.8-1.8-1.8C57.4,97.4,56.6,98.2,56.6,99.2L56.6,99.2z M57.3,99.2
		c0-0.6,0.5-1.2,1.2-1.2s1.2,0.5,1.2,1.2s-0.5,1.2-1.2,1.2S57.3,99.9,57.3,99.2L57.3,99.2z M68.1,110.7h1.2v-10.3h0l7.1,10.3h1.3
		V98.6h-1.2v10.3h0l-7.1-10.3h-1.3V110.7L68.1,110.7z M83.2,101.7c-2.7,0-4.1,2.1-4.1,4.6c0,2.5,1.5,4.6,4.1,4.6
		c2.7,0,4.1-2.1,4.1-4.6C87.4,103.8,85.9,101.7,83.2,101.7L83.2,101.7z M83.2,102.6c2.1,0,3.1,1.9,3.1,3.7c0,1.9-1,3.7-3.1,3.7
		c-2.1,0-3.1-1.9-3.1-3.7C80.1,104.5,81.2,102.6,83.2,102.6L83.2,102.6z M88.6,110.7h1.1V106c0-1.8,1.3-3.2,3.3-3.1v-1.1
		c-1.6-0.1-2.8,0.8-3.3,2.2h0V102h-1V110.7L88.6,110.7z M97.2,109.7c-2,0-2.9-1.7-2.9-3.5c0-1.8,0.8-3.6,2.9-3.6
		c2,0,2.8,1.9,2.8,3.6C100,108,99,109.7,97.2,109.7L97.2,109.7z M101.1,102H100v1.5h0c-0.4-1-1.5-1.8-2.8-1.8c-2.5,0-4,2-4,4.4
		c0,2.5,1.2,4.5,4,4.5c1.3,0,2.3-0.7,2.8-1.8h0v1.2c0,2.1-0.9,3.3-2.8,3.3c-1.2,0-2.3-0.5-2.6-1.8h-1.1c0.2,1.9,1.9,2.7,3.6,2.7
		c2.9,0,3.9-1.6,3.9-4.2V102L101.1,102z M110.1,106.6c0.1-2.5-1-4.9-3.9-4.9c-2.8,0-4,2.3-4,4.6c0,2.5,1.2,4.6,4,4.6
		c2.2,0,3.4-1.2,3.8-3.1H109c-0.3,1.3-1.2,2.2-2.8,2.2c-2.1,0-2.9-1.9-2.9-3.5H110.1L110.1,106.6z M103.4,105.7
		c0.2-1.6,1.1-3.1,2.9-3.1c1.7,0,2.7,1.5,2.8,3.1H103.4L103.4,105.7z"/>
	<path class="st0" d="M13.8,81.9c-0.3-2.1-1.8-3.3-3.9-3.3c-3.4,0-4.7,3.3-4.7,6.2c0,3,1,6.2,4.6,6.2c2.5,0,4.2-1.9,4.2-4.4
		c0-0.9-0.3-1.9-0.9-2.7c-0.7-0.7-1.7-1.2-2.7-1.2c-1.2,0-2,0.4-2.7,1.3l0,0c0.1-1.3,0.5-3.6,2.3-3.6c0.8,0,1.4,0.7,1.6,1.5H13.8
		L13.8,81.9z M9.7,84.6c1.2,0,1.8,1.1,1.8,2.2c0,1.1-0.7,2.2-1.8,2.2c-1.2,0-1.9-1.1-1.9-2.2C7.8,85.6,8.4,84.6,9.7,84.6L9.7,84.6z
		 M14.9,87.1H20V85h-5.1V87.1L14.9,87.1z M29.1,78.8h-6.6l-1.2,6.6h2.2c0.5-0.6,1-1,1.8-1c1.3,0,2.1,1,2.1,2.2
		c0,1.2-0.8,2.3-2.1,2.3c-1.1,0-1.8-0.7-2-1.8h-2.4c0,2.5,2.1,3.8,4.4,3.8c2.4,0.1,4.4-1.8,4.4-4.3c0-2.2-1.3-4-3.7-4
		c-0.9,0-1.7,0.3-2.3,0.9l0,0l0.5-2.7h4.9V78.8L29.1,78.8z M30,84.7c0,4.7,2,6.2,4.4,6.2c2.4,0,4.4-1.5,4.4-6.2c0-4.6-2-6.1-4.4-6.1
		C32,78.6,30,80.1,30,84.7L30,84.7z M32.4,84.7c0-1.2,0-4.1,1.9-4.1c2,0,2,2.9,2,4.1c0,1.3,0,4.3-2,4.3C32.4,89,32.4,86.1,32.4,84.7
		L32.4,84.7z M44.3,90.7h2.5v-8.5h0l3,8.5h2.1l3-8.6h0v8.6h2.5V78.6h-3.8L51,86.9h0l-2.8-8.3h-3.8V90.7L44.3,90.7z M59.4,90.7h2.5
		v-8.1h0l5,8.1h2.7V78.6h-2.5v8.1h0l-5.1-8.1h-2.7V90.7L59.4,90.7z M71.2,84.7c0,3.5,2.2,6.3,6,6.3s6-2.8,6-6.3c0-3.6-2.2-6.4-6-6.4
		S71.2,81.1,71.2,84.7L71.2,84.7z M73.8,84.7c0-2.1,0.9-4.2,3.3-4.2c2.4,0,3.3,2,3.3,4.2c0,2-0.9,4.1-3.3,4.1
		C74.7,88.8,73.8,86.7,73.8,84.7L73.8,84.7z M84.6,90.7h2.7v-3.9l1.5-1.5l3.7,5.5h3.3l-5.2-7.3l4.7-4.8H92l-4.7,5v-5h-2.7V90.7
		L84.6,90.7z"/>
	<path class="st0" d="M10.2,70.7h2.5v-8.5h0l3,8.5h2.1l3-8.6h0v8.6h2.5V58.6h-3.8l-2.7,8.3h0l-2.8-8.3h-3.8V70.7L10.2,70.7z
		 M33.3,66.9c0.2-2.7-1.3-5.2-4.3-5.2c-2.7,0-4.5,2-4.5,4.6c0,2.7,1.7,4.6,4.5,4.6c2,0,3.4-0.9,4.1-3H31c-0.2,0.5-0.9,1.1-1.9,1.1
		c-1.3,0-2.1-0.7-2.2-2.2H33.3L33.3,66.9z M27,65.4c0-0.7,0.5-1.9,2-1.9c1.2,0,1.7,0.6,1.9,1.9H27L27,65.4z M40.7,70.7H43V58.6h-2.4
		V63h0c-0.5-0.9-1.6-1.3-2.6-1.3c-2.6,0-3.9,2.2-3.9,4.6c0,2.4,1.3,4.7,3.9,4.7c1.1,0,2.1-0.4,2.7-1.4h0V70.7L40.7,70.7z M40.6,66.3
		c0,1.4-0.5,2.8-2.1,2.8c-1.5,0-2.1-1.4-2.1-2.8c0-1.4,0.5-2.8,2.1-2.8C40.1,63.5,40.6,64.9,40.6,66.3L40.6,66.3z M44.5,70.7h2.4
		v-8.8h-2.4V70.7L44.5,70.7z M46.9,58.6h-2.4v2h2.4V58.6L46.9,58.6z M56.8,66.9c0.2-2.7-1.3-5.2-4.3-5.2c-2.7,0-4.5,2-4.5,4.6
		c0,2.7,1.7,4.6,4.5,4.6c2,0,3.4-0.9,4.1-3h-2.1c-0.2,0.5-0.9,1.1-1.9,1.1c-1.3,0-2.1-0.7-2.2-2.2H56.8L56.8,66.9z M50.5,65.4
		c0-0.7,0.5-1.9,2-1.9c1.2,0,1.7,0.6,1.9,1.9H50.5L50.5,65.4z M57.9,70.7h2.3v-1.1h0c0.5,1,1.6,1.4,2.9,1.4c1.8,0,3.6-1.4,3.6-4.6
		c0-3.2-1.9-4.6-3.6-4.6c-1.1,0-2.2,0.4-2.8,1.3h0v-4.4h-2.4V70.7L57.9,70.7z M64.4,66.3c0,1.5-0.6,2.8-2.1,2.8s-2.1-1.3-2.1-2.8
		c0-1.5,0.6-2.8,2.1-2.8S64.4,64.9,64.4,66.3L64.4,66.3z M76,61.9h-2.5l-1.9,6h0l-2-6h-2.6l3.1,8.2c0.3,0.7,0,1.6-0.8,1.6
		c-0.5,0-1-0.1-1.4-0.1v2c0.5,0.1,1,0.1,1.5,0.1c1.7,0,2.5-0.6,3-2L76,61.9L76,61.9z M76.4,70.7h2.4v-4c0-1.5,0.6-2.8,2.4-2.8
		c0.3,0,0.6,0,0.9,0.1v-2.2c-0.2-0.1-0.4-0.1-0.5-0.1c-1.2,0-2.4,0.8-2.8,1.9h0v-1.6h-2.3V70.7L76.4,70.7z M88.2,67.3
		c0,0.5-0.1,2-2,2c-0.8,0-1.5-0.2-1.5-1.1c0-0.9,0.7-1.1,1.4-1.3c0.7-0.1,1.6-0.2,2-0.5V67.3L88.2,67.3z M85,64.6
		c0.1-1,0.7-1.3,1.6-1.3c0.8,0,1.6,0.2,1.6,1.2c0,1-1.4,0.9-2.9,1.2c-1.5,0.2-3,0.7-3,2.7c0,1.8,1.3,2.6,3,2.6c1.1,0,2.2-0.3,3-1.1
		c0,0.3,0.1,0.6,0.2,0.9h2.4c-0.2-0.4-0.3-1.2-0.3-2v-4.6c0-2.1-2.1-2.5-3.9-2.5c-2,0-4,0.7-4.1,2.9H85L85,64.6z M85.6,59.6
		c0-0.7,0.4-1.2,1.1-1.2s1.1,0.5,1.1,1.2s-0.4,1.2-1.1,1.2S85.6,60.2,85.6,59.6L85.6,59.6z M84.6,59.6c0,1.1,0.9,2.1,2.1,2.1
		c1.2,0,2.1-0.9,2.1-2.1c0-1.1-0.9-2.1-2.1-2.1C85.5,57.5,84.6,58.4,84.6,59.6L84.6,59.6z"/>
</g>
<g>
	<path class="st0" d="M39.7,132.8v2.2h-8.2c0.1-0.8,0.4-1.6,0.8-2.3c0.4-0.7,1.3-1.7,2.6-2.9c1.1-1,1.7-1.6,1.9-2
		c0.3-0.5,0.5-1,0.5-1.4c0-0.5-0.1-0.9-0.4-1.2c-0.3-0.3-0.7-0.4-1.2-0.4c-0.5,0-0.9,0.1-1.2,0.4c-0.3,0.3-0.5,0.8-0.5,1.5l-2.3-0.2
		c0.1-1.3,0.6-2.2,1.3-2.8c0.7-0.6,1.6-0.8,2.7-0.8c1.2,0,2.1,0.3,2.8,1c0.7,0.6,1,1.5,1,2.4c0,0.5-0.1,1.1-0.3,1.6s-0.5,1-0.9,1.6
		c-0.3,0.4-0.8,0.9-1.5,1.6c-0.7,0.7-1.2,1.1-1.4,1.3c-0.2,0.2-0.4,0.4-0.5,0.6H39.7z"/>
	<path class="st0" d="M45.2,122.8c1.2,0,2.1,0.4,2.8,1.3c0.8,1,1.2,2.6,1.2,5c0,2.3-0.4,4-1.2,5c-0.7,0.8-1.6,1.2-2.8,1.2
		c-1.2,0-2.1-0.5-2.9-1.4c-0.7-0.9-1.1-2.5-1.1-4.9c0-2.3,0.4-3.9,1.2-4.9C43.1,123.2,44,122.8,45.2,122.8z M45.2,124.7
		c-0.3,0-0.5,0.1-0.8,0.3c-0.2,0.2-0.4,0.5-0.5,1c-0.2,0.6-0.2,1.6-0.2,3s0.1,2.4,0.2,2.9c0.1,0.5,0.3,0.9,0.5,1.1s0.5,0.3,0.8,0.3
		s0.5-0.1,0.8-0.3c0.2-0.2,0.4-0.5,0.5-1c0.2-0.6,0.2-1.6,0.2-3s-0.1-2.4-0.2-2.9s-0.3-0.9-0.5-1.1S45.5,124.7,45.2,124.7z"/>
	<path class="st0" d="M56.7,135h-2.3v-8.8c-0.9,0.8-1.9,1.4-3,1.8v-2.1c0.6-0.2,1.3-0.6,2-1.1c0.7-0.6,1.2-1.2,1.5-1.9h1.9V135z"/>
	<path class="st0" d="M60.2,125.1V123h8v1.7c-0.7,0.6-1.3,1.6-2,2.8s-1.2,2.5-1.6,3.9c-0.4,1.4-0.5,2.6-0.5,3.7h-2.3
		c0-1.7,0.4-3.4,1-5.1c0.7-1.7,1.5-3.3,2.6-4.7H60.2z"/>
</g>
<g>
	<path class="st0" d="M10.4-17.5v3.8H-4c0.2-1.4,0.6-2.8,1.4-4.1c0.8-1.3,2.3-3,4.6-5.1c1.8-1.7,3-2.9,3.4-3.5
		c0.6-0.8,0.8-1.7,0.8-2.5c0-0.9-0.2-1.6-0.7-2.1c-0.5-0.5-1.2-0.7-2-0.7c-0.9,0-1.5,0.3-2,0.8s-0.8,1.4-0.9,2.6l-4.1-0.4
		c0.2-2.3,1-3.9,2.3-4.8c1.3-1,2.9-1.5,4.8-1.5c2.1,0,3.8,0.6,5,1.7c1.2,1.1,1.8,2.5,1.8,4.2c0,1-0.2,1.9-0.5,2.7
		c-0.3,0.9-0.9,1.8-1.6,2.7c-0.5,0.6-1.4,1.5-2.7,2.7s-2.1,2-2.5,2.4c-0.3,0.4-0.6,0.8-0.8,1.1H10.4z"/>
	<path class="st0" d="M14-13.7v-4.1h4.1v4.1H14z"/>
	<path class="st0" d="M30.5-29.2h3.8v2.3c0.5-0.8,1.2-1.4,2-1.9s1.8-0.7,2.8-0.7c1.8,0,3.3,0.7,4.6,2.1c1.3,1.4,1.9,3.4,1.9,5.9
		c0,2.6-0.6,4.6-1.9,6c-1.3,1.4-2.8,2.1-4.6,2.1c-0.9,0-1.6-0.2-2.3-0.5c-0.7-0.3-1.4-0.9-2.2-1.7v7.8h-4.1V-29.2z M34.5-21.7
		c0,1.7,0.3,3,1,3.9s1.5,1.2,2.5,1.2c1,0,1.7-0.4,2.4-1.1c0.6-0.8,0.9-2,0.9-3.8c0-1.6-0.3-2.8-1-3.6c-0.7-0.8-1.5-1.2-2.4-1.2
		c-1,0-1.8,0.4-2.5,1.2C34.8-24.4,34.5-23.3,34.5-21.7z"/>
	<path class="st0" d="M48.8-13.7v-21.3h4.1v21.3H48.8z"/>
	<path class="st0" d="M60.2-24.5l-3.7-0.7c0.4-1.5,1.1-2.6,2.2-3.3c1-0.7,2.5-1.1,4.5-1.1c1.8,0,3.2,0.2,4.1,0.6s1.5,1,1.9,1.6
		s0.5,1.9,0.5,3.7l0,4.8c0,1.4,0.1,2.4,0.2,3c0.1,0.6,0.4,1.3,0.7,2.1h-4c-0.1-0.3-0.2-0.7-0.4-1.2c-0.1-0.2-0.1-0.4-0.1-0.5
		c-0.7,0.7-1.4,1.2-2.2,1.5s-1.6,0.5-2.5,0.5c-1.6,0-2.8-0.4-3.8-1.3c-0.9-0.9-1.4-2-1.4-3.3c0-0.9,0.2-1.7,0.6-2.3
		c0.4-0.7,1-1.2,1.8-1.6c0.8-0.4,1.8-0.7,3.3-1c1.9-0.4,3.2-0.7,4-1v-0.4c0-0.8-0.2-1.3-0.6-1.7s-1.1-0.5-2.2-0.5
		c-0.7,0-1.3,0.1-1.7,0.4C60.7-25.7,60.4-25.2,60.2-24.5z M65.6-21.2c-0.5,0.2-1.4,0.4-2.5,0.6s-1.9,0.5-2.2,0.7
		c-0.5,0.4-0.8,0.9-0.8,1.4c0,0.6,0.2,1.1,0.6,1.5s1,0.6,1.6,0.6c0.7,0,1.4-0.2,2.1-0.7c0.5-0.4,0.8-0.8,1-1.4c0.1-0.3,0.2-1,0.2-2
		V-21.2z"/>
	<path class="st0" d="M72.2-18.2l4.1-0.6c0.2,0.8,0.5,1.4,1.1,1.8c0.5,0.4,1.3,0.6,2.2,0.6c1.1,0,1.9-0.2,2.4-0.6
		c0.4-0.3,0.5-0.6,0.5-1.1c0-0.3-0.1-0.6-0.3-0.8c-0.2-0.2-0.7-0.4-1.4-0.5c-3.3-0.7-5.4-1.4-6.3-2c-1.2-0.8-1.8-2-1.8-3.5
		c0-1.3,0.5-2.5,1.6-3.4c1.1-0.9,2.7-1.4,4.9-1.4c2.1,0,3.7,0.3,4.7,1c1,0.7,1.7,1.7,2.1,3.1l-3.9,0.7c-0.2-0.6-0.5-1.1-0.9-1.4
		s-1.1-0.5-2-0.5c-1.1,0-1.8,0.2-2.3,0.5c-0.3,0.2-0.5,0.5-0.5,0.8c0,0.3,0.1,0.5,0.4,0.7c0.4,0.3,1.6,0.7,3.8,1.2
		c2.2,0.5,3.7,1.1,4.6,1.8c0.9,0.7,1.3,1.7,1.3,3c0,1.4-0.6,2.6-1.8,3.7s-2.9,1.5-5.3,1.5c-2.1,0-3.8-0.4-5-1.3
		C73.4-15.5,72.6-16.7,72.2-18.2z"/>
	<path class="st0" d="M88.8-18.2l4.1-0.6c0.2,0.8,0.5,1.4,1.1,1.8c0.5,0.4,1.3,0.6,2.2,0.6c1.1,0,1.9-0.2,2.4-0.6
		c0.4-0.3,0.5-0.6,0.5-1.1c0-0.3-0.1-0.6-0.3-0.8c-0.2-0.2-0.7-0.4-1.4-0.5c-3.3-0.7-5.4-1.4-6.3-2c-1.2-0.8-1.8-2-1.8-3.5
		c0-1.3,0.5-2.5,1.6-3.4c1.1-0.9,2.7-1.4,4.9-1.4c2.1,0,3.7,0.3,4.7,1c1,0.7,1.7,1.7,2.1,3.1l-3.9,0.7c-0.2-0.6-0.5-1.1-0.9-1.4
		s-1.1-0.5-2-0.5c-1.1,0-1.8,0.2-2.3,0.5c-0.3,0.2-0.5,0.5-0.5,0.8c0,0.3,0.1,0.5,0.4,0.7c0.4,0.3,1.6,0.7,3.8,1.2
		c2.2,0.5,3.7,1.1,4.6,1.8c0.9,0.7,1.3,1.7,1.3,3c0,1.4-0.6,2.6-1.8,3.7s-2.9,1.5-5.3,1.5c-2.1,0-3.8-0.4-5-1.3
		C90-15.5,89.2-16.7,88.8-18.2z"/>
</g>
</svg>
