<svg id="Layer_1" data-name="Layer 1" xmlns="http://www.w3.org/2000/svg"  viewBox="-19 -10 200 200">
  <title>Årets Byrå NORGE VINNARE Mediebyrå 6-50 MNOK</title>
  <path d="M22.08-17.94V37.23H77.24V-17.94H22.08ZM36.39,17.14S32.65-.25,32.64-5.77c0-7.64,7.93-7.67,7.95,0,0,5.53-3.64,22.94-3.64,22.94C36.79,17.77,36.55,17.77,36.39,17.14Zm4.23,1.4S50.26,3.6,54.16-.32c5.39-5.42,11,.18,5.64,5.6C55.9,9.2,41,18.92,41,18.92,40.46,19.26,40.28,19.09,40.62,18.53ZM65.55,26.7c-5.53,0-22.94-3.64-22.94-3.64-0.63-.15-0.64-0.4,0-0.56,0,0,17.38-3.74,22.91-3.75C73.17,18.73,73.19,26.68,65.55,26.7Z" transform="translate(10.75 42.71)" fill="#fff"/>
  <path d="M34.21,111.13c0-1.26.46-2.74,1.89-2.74a1.72,1.72,0,0,1,1.79,1.84c0,1.46-1.45,2.19-2.5,2.91-2.06,1.39-3.74,2.57-3.76,5.32h8.74v-2.07H34.73a13,13,0,0,1,3.43-2.74,4.18,4.18,0,0,0,2.13-3.6,3.79,3.79,0,0,0-4.08-3.72c-2.86,0-4.4,2.09-4.32,4.81h2.31Zm6.53,1.33c0,4.74,2,6.24,4.35,6.24s4.39-1.5,4.39-6.24-2-6.14-4.39-6.14-4.35,1.5-4.35,6.14h0Zm2.41,0c0-1.24,0-4.15,1.94-4.15s2,2.91,2,4.15,0,4.25-2,4.25-1.94-2.91-1.94-4.25h0Zm13-5.9H54.23c-0.26,1.82-1.8,2.4-3.49,2.36v1.82h3v7.72h2.41v-11.9h0Zm5.1,8.3A1.89,1.89,0,0,1,63.36,113a1.92,1.92,0,0,1,2,1.9,2,2,0,0,1-2,2,2,2,0,0,1-2.11-2h0Zm-1.92-5.29A2.37,2.37,0,0,0,61.08,112v0A2.83,2.83,0,0,0,58.84,115c0,2.57,2.23,3.72,4.52,3.72s4.45-1.24,4.45-3.74A2.78,2.78,0,0,0,65.59,112v0a2.5,2.5,0,0,0,1.73-2.5c0-1.16-1-3.2-4-3.2-1.94,0-4,1.1-4,3.25h0Zm2.19,0.22a1.67,1.67,0,0,1,1.82-1.65,1.62,1.62,0,1,1,0,3.21,1.62,1.62,0,0,1-1.82-1.56h0Z" transform="translate(10.75 42.71)" fill="#fff"/>
  <path d="M-10.75,98.45h1.24L-8,94.68h5.52L-1,98.45H0.2L-4.56,86.32H-5.85l-4.9,12.14h0Zm5.49-11,2.35,6.22H-7.69l2.43-6.22h0Zm-1.82-3.64a1.82,1.82,0,0,0,1.82,1.82,1.82,1.82,0,0,0,1.82-1.82A1.82,1.82,0,0,0-5.26,82a1.82,1.82,0,0,0-1.82,1.82h0Zm0.66,0a1.15,1.15,0,0,1,1.16-1.16A1.15,1.15,0,0,1-4.1,83.83,1.15,1.15,0,0,1-5.26,85a1.15,1.15,0,0,1-1.16-1.16h0ZM0.76,98.45H1.83V93.78A3,3,0,0,1,5.1,90.63V89.56a3.24,3.24,0,0,0-3.32,2.18h0V89.68h-1v8.77h0Zm12.09-4.1c0.09-2.46-1-4.93-3.86-4.93s-4,2.33-4,4.64c0,2.5,1.17,4.64,4,4.64a3.58,3.58,0,0,0,3.82-3.14H11.74A2.67,2.67,0,0,1,9,97.81c-2.06,0-2.87-1.89-2.89-3.45h6.75Zm-6.75-.9c0.17-1.6,1.14-3.13,2.89-3.13a3,3,0,0,1,2.79,3.13H6.1ZM15.65,87H14.58v2.64H13.05v0.9h1.53v6c0,1.5.48,2,1.9,2,0.32,0,.63,0,1,0V97.6a8.31,8.31,0,0,1-.92.05c-0.77-.05-0.87-0.46-0.87-1.16V90.58h1.79v-0.9H15.65V87h0ZM25,92.25c-0.07-1.9-1.46-2.82-3.21-2.82-1.55,0-3.3.68-3.3,2.46,0,1.5,1.05,2,2.45,2.35l1.38,0.31c1,0.24,1.92.58,1.92,1.6,0,1.22-1.39,1.67-2.4,1.67a2.31,2.31,0,0,1-2.58-2.19H18.15c0.17,2.14,1.56,3.09,3.6,3.09,1.63,0,3.52-.73,3.52-2.63a2.57,2.57,0,0,0-2.5-2.43l-1.43-.32c-0.73-.19-1.82-0.53-1.82-1.48,0-1.14,1.12-1.51,2.07-1.51a2,2,0,0,1,2.29,1.92H25Zm7.26,0.37h4c2,0,3.2.8,3.2,2.35,0,1.94-1.48,2.52-3.2,2.5h-4V92.62h0Zm-1.16,5.83h5.13c3.94,0,4.35-2.3,4.35-3.45A2.84,2.84,0,0,0,38,92v0a2.76,2.76,0,0,0,2.11-2.72c0-2.26-1.85-3-3.89-3H31.07V98.45h0ZM32.23,87.3h4c1.8,0,2.74.77,2.74,2.28,0,1.14-.88,2.06-2.74,2.06h-4V87.3h0ZM44.38,98.42l-0.37,1c-0.36.82-.58,1.38-1.53,1.38a3.71,3.71,0,0,1-.73-0.09v0.9a2.77,2.77,0,0,0,.82.09c1.34,0,1.7-.43,2.31-1.9l3.81-10.11H47.61l-2.7,7.48L42,89.68H40.88l3.5,8.74h0Zm5,0h1.07V93.78a3,3,0,0,1,3.26-3.15V89.56a3.24,3.24,0,0,0-3.32,2.18h0V89.68h-1v8.77h0ZM60,95.05A2.82,2.82,0,0,1,57,97.81a1.83,1.83,0,0,1-2-1.73c0-1.72,2.26-1.7,4.08-2a1.34,1.34,0,0,0,.9-0.39h0v1.39h0Zm-4.64-2.69c0-1.43,1-2,2.35-2S60,90.68,60,92.13c0,1-.49,1.09-1.38,1.19-2.31.27-4.71,0.36-4.71,2.82,0,1.77,1.33,2.57,2.94,2.57a3.34,3.34,0,0,0,3.2-1.79h0c0,0.92.17,1.53,1.26,1.53a2.94,2.94,0,0,0,.7-0.07v-0.9a1,1,0,0,1-.34.07,0.57,0.57,0,0,1-.63-0.65V92.25c0-2.35-1.68-2.82-3.23-2.82-2,0-3.45.88-3.55,2.94h1.07ZM56,86.94a1.82,1.82,0,1,0,1.82-1.82A1.82,1.82,0,0,0,56,86.94h0Zm0.66,0a1.16,1.16,0,1,1,1.16,1.16,1.15,1.15,0,0,1-1.16-1.16h0ZM67.47,98.45h1.16V88.19h0l7.07,10.27H77V86.32H75.87V96.58h0L68.76,86.32H67.47V98.45h0Zm15.15-9c-2.69,0-4.15,2.12-4.15,4.64s1.46,4.64,4.15,4.64,4.15-2.12,4.15-4.64-1.46-4.64-4.15-4.64h0Zm0,0.9c2.06,0,3.08,1.87,3.08,3.74s-1,3.74-3.08,3.74-3.08-1.87-3.08-3.74,1-3.74,3.08-3.74h0ZM88,98.45h1.07V93.78a3,3,0,0,1,3.26-3.15V89.56A3.24,3.24,0,0,0,89,91.74h0V89.68H88v8.77h0Zm8.53-1c-2,0-2.89-1.72-2.89-3.49s0.85-3.64,2.89-3.64,2.82,1.92,2.82,3.64-1,3.49-2.82,3.49h0Zm3.89-7.77H99.38v1.51h0a3.09,3.09,0,0,0-2.79-1.77c-2.53,0-4,2-4,4.42s1.16,4.51,4,4.51a3,3,0,0,0,2.79-1.8h0v1.19c0,2.14-.85,3.32-2.82,3.32A2.31,2.31,0,0,1,94,99.3H92.92c0.15,1.87,1.89,2.65,3.64,2.65,2.87,0,3.88-1.6,3.89-4.22V89.68h0Zm9.08,4.67c0.08-2.46-1-4.93-3.86-4.93s-4,2.33-4,4.64c0,2.5,1.17,4.64,4,4.64a3.58,3.58,0,0,0,3.82-3.14h-1.07a2.67,2.67,0,0,1-2.75,2.24c-2.06,0-2.87-1.89-2.89-3.45h6.75Zm-6.75-.9c0.17-1.6,1.14-3.13,2.89-3.13a3,3,0,0,1,2.79,3.13h-5.68Z" transform="translate(10.75 42.71)" fill="#fff"/>
  <path d="M13.15,69.61a3.64,3.64,0,0,0-3.86-3.3c-3.38,0-4.68,3.32-4.68,6.22s1,6.15,4.57,6.15a4.34,4.34,0,0,0,3.25-7A3.8,3.8,0,0,0,9.7,70.46,3,3,0,0,0,7,71.79l0,0c0.07-1.33.53-3.62,2.28-3.62a1.7,1.7,0,0,1,1.6,1.48h2.3Zm-4,2.67a2,2,0,0,1,1.82,2.24A2,2,0,0,1,9.12,76.7,2.05,2.05,0,0,1,7.2,74.49a2,2,0,0,1,1.92-2.21h0Zm5.15,2.57h5.12V72.78H14.28v2.07h0Zm14.18-8.3H21.81l-1.17,6.58h2.18a2,2,0,0,1,1.82-1,2,2,0,0,1,2.06,2.23,2.15,2.15,0,0,1-2.06,2.3,1.92,1.92,0,0,1-2-1.79H20.26c0,2.5,2.11,3.77,4.42,3.77a4.3,4.3,0,0,0,4.42-4.28c0-2.23-1.33-4-3.67-4a3,3,0,0,0-2.33.92l0,0,0.48-2.7h4.91v-2h0Zm1,5.9c0,4.74,2,6.24,4.35,6.24s4.39-1.5,4.39-6.24-2-6.14-4.39-6.14-4.35,1.5-4.35,6.14h0Zm2.41,0c0-1.24,0-4.15,1.94-4.15s2,2.91,2,4.15,0,4.25-2,4.25-1.94-2.91-1.94-4.25h0Zm11.9,6h2.5V69.94h0l3,8.52H51.3l3-8.6h0v8.6h2.5V66.32H53.05l-2.69,8.35h0l-2.84-8.35H43.74V78.45h0Zm15.08,0h2.5V70.33h0l5,8.13h2.67V66.32h-2.5v8.14h0l-5.07-8.14H58.82V78.45h0Zm11.73-6c0,3.5,2.21,6.31,6,6.31s6-2.8,6-6.31S80.27,66,76.51,66s-6,2.8-6,6.41h0Zm2.67,0c0-2.12.9-4.17,3.3-4.17s3.3,2,3.3,4.17-0.9,4.06-3.3,4.06-3.3-2-3.3-4.06h0Zm10.74,6h2.67V74.54L88.16,73l3.65,5.46h3.35L90,71.11l4.74-4.79H91.37l-4.74,5v-5H84V78.45h0Z" transform="translate(10.75 42.71)" fill="#fff"/>
  <path d="M9.55,58.45H12V49.94h0l3,8.52h2.06l3-8.6h0v8.6h2.5V46.31H18.87l-2.69,8.35h0l-2.84-8.35H9.55V58.45h0ZM32.7,54.65c0.17-2.7-1.27-5.22-4.27-5.22a4.41,4.41,0,0,0-4.49,4.64,4.29,4.29,0,0,0,4.49,4.62,4,4,0,0,0,4.11-3H30.43a2,2,0,0,1-1.9,1.14c-1.34,0-2.09-.7-2.16-2.23H32.7Zm-6.34-1.53a1.9,1.9,0,0,1,2-1.87c1.17,0,1.7.65,1.92,1.87H26.36Zm13.7,5.34h2.29V46.31H39.95v4.42h0a3,3,0,0,0-2.6-1.31c-2.58,0-3.89,2.19-3.89,4.56s1.29,4.71,3.94,4.71A2.92,2.92,0,0,0,40,57.33h0v1.12h0ZM40,54c0,1.45-.48,2.84-2.07,2.84s-2.12-1.45-2.12-2.82,0.54-2.8,2.12-2.8S40,52.61,40,54h0Zm3.88,4.42h2.41V49.66H43.91v8.79h0Zm2.41-12.14H43.91v2h2.41v-2h0Zm9.89,8.33c0.17-2.7-1.28-5.22-4.27-5.22a4.41,4.41,0,0,0-4.49,4.64,4.29,4.29,0,0,0,4.49,4.62,4,4,0,0,0,4.11-3H53.94A2,2,0,0,1,52,56.87c-1.34,0-2.09-.7-2.16-2.23h6.34Zm-6.34-1.53a1.9,1.9,0,0,1,2-1.87c1.17,0,1.7.65,1.92,1.87H49.87Zm7.43,5.34H59.6V57.33h0a3,3,0,0,0,2.89,1.36c1.75,0,3.64-1.41,3.64-4.64s-1.89-4.62-3.64-4.62a3.25,3.25,0,0,0-2.77,1.31h0V46.31H57.3V58.45h0Zm6.44-4.39c0,1.46-.63,2.8-2.06,2.8s-2.06-1.34-2.06-2.8,0.63-2.82,2.06-2.82,2.06,1.34,2.06,2.82h0Zm11.61-4.4h-2.5l-1.92,6h0l-2-6H66.33l3.09,8.24a1.14,1.14,0,0,1-.83,1.65,12.84,12.84,0,0,1-1.41-.08v2a14.37,14.37,0,0,0,1.48.08,2.76,2.76,0,0,0,3-2l3.67-9.89h0Zm0.48,8.79h2.41v-4c0-1.55.61-2.82,2.38-2.82a4.41,4.41,0,0,1,.87.08V49.51A1.8,1.8,0,0,0,81,49.43a3.11,3.11,0,0,0-2.8,1.87h0V49.66h-2.3v8.79h0Zm11.75-3.4a1.79,1.79,0,0,1-2,2c-0.78,0-1.48-.22-1.48-1.12s0.68-1.14,1.43-1.29a4.8,4.8,0,0,0,2-.51v0.9h0Zm-3.16-2.69A1.37,1.37,0,0,1,86,51c0.85,0,1.56.15,1.56,1.19s-1.38.93-2.86,1.16-3,.68-3,2.67c0,1.8,1.33,2.64,3,2.64a4,4,0,0,0,3-1.09,3.59,3.59,0,0,0,.17.85H90.3a4.5,4.5,0,0,1-.31-2V51.93c0-2.11-2.11-2.5-3.86-2.5-2,0-4,.68-4.13,2.94h2.41ZM85,47.3a1.1,1.1,0,0,1,1.07-1.19,1.2,1.2,0,0,1,0,2.38A1.1,1.1,0,0,1,85,47.3h0Zm-1,0a2.08,2.08,0,1,0,2.07-2.07A2.08,2.08,0,0,0,84,47.3h0Z" transform="translate(10.75 42.71)" fill="#fff"/>
  <path d="M15.09-42.71H10.71L6.37-29.16H6.31L2-42.71H-2.35L3.91-23.44H8.69l6.4-19.28h0Zm2.19,19.28h4.24V-42.71H17.27v19.28h0Zm8.24,0h4V-36.34h0.05l8,12.91h4.24V-42.71h-4v12.93H37.77l-8-12.93H25.51v19.28h0Zm20.28,0h4V-36.34h0.05l8,12.91h4.24V-42.71h-4v12.93H58L50-42.71H45.79v19.28h0Zm20.28,0H80.7V-27H70.3v-4.73h9.34V-35H70.3v-4.13H80.48v-3.56H66.06v19.28h0Zm17.77,0h4.24V-31h4.24c2.13,0,2.92.89,3.21,2.92,0.22,1.54.16,3.4,0.68,4.62h4.24c-0.76-1.08-.73-3.35-0.81-4.56-0.14-1.94-.73-4-2.81-4.51v-0.05a4.74,4.74,0,0,0,3.05-4.83,5.3,5.3,0,0,0-5.64-5.32H83.83v19.28h0Zm4.24-16h4.64c1.89,0,2.92.81,2.92,2.67S94.6-34,92.71-34H88.07v-5.43h0Z" transform="translate(10.75 42.71)" fill="#fff"/>
</svg>
